<svg width="20" height="18" viewBox="0 0 20 18" fill="none" xmlns="http://www.w3.org/2000/svg">
<path d="M9.78353 5.94608C9.59147 6.05592 9.34733 5.98871 9.23828 5.79361C9.12923 5.60015 9.19596 5.35423 9.38965 5.24439C9.78841 5.01651 10.1497 4.77222 10.4557 4.50335C10.7471 4.2476 10.9847 3.97053 11.1507 3.67051C11.1914 3.59673 11.2256 3.52459 11.2565 3.45246C11.4518 2.99341 11.4974 2.49829 11.3802 2.05563C11.2663 1.62937 10.9977 1.25066 10.5583 1.00638C10.4997 0.973589 10.4395 0.944079 10.3792 0.917847C10.2181 0.84735 10.0635 0.811282 9.91537 0.806364C9.76888 0.801445 9.62402 0.826037 9.48242 0.88014C9.15365 1.0031 8.89974 1.22115 8.74024 1.47199C8.64909 1.61462 8.5905 1.76873 8.56771 1.91956C8.54655 2.06219 8.55632 2.19991 8.60026 2.32123C8.65072 2.45894 8.75 2.58518 8.90462 2.68519C8.99577 2.74421 9.11621 2.77208 9.26921 2.77044C9.45801 2.76716 9.6875 2.71634 9.96094 2.61469C10.1693 2.53928 10.3988 2.64748 10.4736 2.85569C10.5485 3.06554 10.4411 3.29671 10.2344 3.37212C9.87793 3.50328 9.56218 3.5705 9.2806 3.57542C8.96484 3.58034 8.69466 3.50984 8.47005 3.36393C8.16244 3.16555 7.95899 2.89996 7.84994 2.60158C7.75553 2.34418 7.73112 2.06875 7.77344 1.79824C7.8125 1.53593 7.91341 1.27525 8.06641 1.03425C8.3138 0.645696 8.7028 0.311246 9.2041 0.124347C9.44499 0.0341766 9.69076 -0.0084494 9.94141 0.00138738C10.1921 0.00958469 10.4427 0.0669659 10.6934 0.17681C10.7829 0.216157 10.8675 0.257144 10.9456 0.29977C11.5902 0.658812 11.9889 1.21787 12.1566 1.84906C12.321 2.4655 12.2607 3.14752 11.9954 3.77051C11.9531 3.87052 11.9059 3.96725 11.8555 4.0607C11.6406 4.45253 11.3444 4.8001 10.9847 5.11487C10.638 5.41653 10.2327 5.69196 9.78353 5.94608ZM6.84408 12.9597C6.70898 12.8171 6.7155 12.5925 6.8571 12.4564C6.9987 12.3203 7.22168 12.3269 7.35677 12.4695C8.32031 13.4893 9.27083 13.9319 10.2067 13.8975C11.1556 13.863 12.1224 13.3466 13.1006 12.4515C13.2454 12.3187 13.4684 12.3301 13.6003 12.4744C13.7321 12.6203 13.7207 12.8449 13.5775 12.9777C12.4772 13.9844 11.3623 14.568 10.2327 14.6074C9.08854 14.6484 7.95899 14.1401 6.84408 12.9597ZM7.36491 7.99213C7.94434 7.99213 8.41471 8.46594 8.41471 9.04958C8.41471 9.63323 7.94434 10.107 7.36491 10.107C6.78548 10.107 6.3151 9.63323 6.3151 9.04958C6.3151 8.46594 6.78548 7.99213 7.36491 7.99213ZM13.0436 7.99213C13.623 7.99213 14.0934 8.46594 14.0934 9.04958C14.0934 9.63323 13.623 10.107 13.0436 10.107C12.4642 10.107 11.9938 9.63323 11.9938 9.04958C11.9938 8.46594 12.4642 7.99213 13.0436 7.99213ZM13.1917 4.88535C12.9948 4.79682 12.9053 4.56073 12.9899 4.35744C13.0745 4.15415 13.3024 4.05906 13.4994 4.14759C14.4743 4.58697 15.3353 5.20176 16.0303 5.94608C16.6357 6.59367 17.1175 7.34126 17.4447 8.15608L17.4707 8.14952C17.6123 8.11837 17.7572 8.10197 17.902 8.10197C18.4798 8.10197 19.0039 8.34626 19.3848 8.74137C19.764 9.13648 19.9984 9.68078 19.9984 10.2808C19.9984 10.8809 19.764 11.4252 19.3848 11.8203C19.0039 12.2154 18.4798 12.4597 17.902 12.4597C17.8272 12.4597 17.7523 12.4547 17.6774 12.4466C17.251 13.9696 16.2972 15.2992 15.0049 16.2616C13.6393 17.2797 11.8962 17.8896 9.99837 17.8896C8.10221 17.8896 6.35742 17.278 4.99186 16.2616C3.69954 15.2976 2.74577 13.9696 2.31934 12.4466C2.24447 12.4547 2.1696 12.4597 2.09473 12.4597C1.51693 12.4597 0.992839 12.2154 0.611979 11.8203C0.234375 11.4284 0 10.8841 0 10.2825C0 9.68242 0.234375 9.13812 0.613607 8.743C0.994466 8.34789 1.51855 8.10361 2.09635 8.10361C2.24121 8.10361 2.38607 8.12001 2.52767 8.15116L2.55371 8.15772C2.88086 7.34126 3.36263 6.59531 3.9681 5.94772C4.66471 5.20176 5.52572 4.58697 6.49902 4.14923C6.69596 4.0607 6.92383 4.15579 7.00846 4.35908C7.0931 4.56237 7.00195 4.8001 6.80664 4.88699C5.92773 5.2821 5.15137 5.83788 4.52474 6.51006C3.91276 7.16584 3.44238 7.93147 3.15918 8.77088C3.1543 8.78891 3.14779 8.8053 3.14128 8.8217C3.05501 9.02499 2.82552 9.11844 2.63021 9.02827C2.54557 8.99056 2.45931 8.96105 2.37142 8.94138C2.28678 8.92335 2.19401 8.91351 2.09798 8.91351C1.73177 8.91351 1.40299 9.06598 1.16536 9.31354C0.926107 9.5611 0.779622 9.90539 0.779622 10.2857C0.779622 10.6661 0.927734 11.0087 1.16536 11.2579C1.40299 11.5055 1.7334 11.658 2.09798 11.658C2.16634 11.658 2.23307 11.6531 2.29818 11.6432C2.36816 11.6317 2.43327 11.617 2.49186 11.5973C2.50163 11.594 2.51139 11.5924 2.52116 11.5891C2.72949 11.5399 2.93783 11.676 2.98503 11.8941C3.30729 13.381 4.19922 14.6861 5.44922 15.6156C6.68457 16.537 8.27149 17.0895 10.0033 17.0895C11.735 17.0895 13.3203 16.537 14.5573 15.6156C15.804 14.6861 16.696 13.3827 17.0199 11.899C17.0215 11.8875 17.0247 11.876 17.028 11.8645C17.0915 11.6514 17.3079 11.5334 17.513 11.5973C17.5732 11.617 17.6367 11.6317 17.7067 11.6432C17.7702 11.6531 17.8369 11.658 17.9069 11.658C18.2731 11.658 18.6019 11.5055 18.8395 11.2579C19.0788 11.0104 19.2253 10.6661 19.2253 10.2857C19.2253 9.90539 19.0772 9.56274 18.8395 9.31354C18.6019 9.06598 18.2715 8.91351 17.9069 8.91351C17.8092 8.91351 17.7181 8.92335 17.6335 8.94138C17.5456 8.96105 17.4593 8.99056 17.3747 9.02827C17.3649 9.03319 17.3551 9.03647 17.3454 9.03975C17.1436 9.11352 16.9222 9.00204 16.8522 8.79219C16.569 7.94459 16.0954 7.17076 15.4785 6.51006C14.8454 5.83624 14.0706 5.28046 13.1917 4.88535Z" fill="#8CA3A5"/>
</svg>
