<svg width="13" height="19" viewBox="0 0 13 19" fill="none" xmlns="http://www.w3.org/2000/svg">
<path d="M12.4121 20.001C12.3473 19.6657 12.2629 19.3759 12.1649 19.1253C11.7413 18.0478 10.6861 17.5562 9.65051 17.0744C9.47565 16.993 9.30079 16.9116 9.11688 16.8205C9.09276 16.853 9.07015 16.884 9.04453 16.9149C8.90283 17.1037 8.73551 17.2697 8.55009 17.4162C8.03455 17.8182 7.37129 18.0494 6.68541 18.0852C6.00255 18.121 5.29708 17.9647 4.69411 17.592C4.39413 17.4064 4.11978 17.1672 3.88613 16.8726C3.72032 16.9588 3.54998 17.0418 3.37512 17.1281C2.38022 17.618 1.25719 18.1715 0.847171 19.0927C0.750696 19.3108 0.673817 19.5517 0.61955 19.8122C0.605983 19.874 0.595431 19.9359 0.583372 19.9993H0C0.0165816 19.8887 0.0361781 19.7812 0.057282 19.6754C0.122101 19.3694 0.211039 19.0862 0.328618 18.8242C0.830589 17.6978 2.05311 17.0956 3.13694 16.5617C3.37813 16.4429 3.61178 16.3273 3.82131 16.215C3.96452 16.0115 4.0821 15.7934 4.17254 15.559C4.25093 15.3588 4.30821 15.1472 4.3474 14.9242C4.12883 14.7826 3.91779 14.6182 3.71881 14.4278C2.90631 13.6481 2.33801 13.0133 1.97171 12.2776C1.59937 11.5321 1.44411 10.7036 1.46371 9.55285L1.5225 6.22097C1.5225 6.18516 1.52852 6.15098 1.53908 6.12006L0.820037 5.8759C0.717532 3.41972 2.03351 1.95155 3.66454 1.24513C4.25846 0.987956 3.26357 -0.416739 4.6308 0.123654C6.45628 0.844719 10.5067 1.82622 11.4654 3.06489C12.2448 4.0708 12.2764 4.61607 12.2583 5.92799C12.2523 6.35444 12.192 6.72718 12.0096 6.86716C11.9252 6.93064 11.8257 6.95669 11.7081 6.94529V9.79537C11.7081 11.3742 11.1851 12.6927 10.3831 13.6709C9.93089 14.2211 9.38973 14.6638 8.80334 14.9812C8.83801 15.1846 8.88625 15.3783 8.94805 15.5623C9.02192 15.782 9.11538 15.9936 9.22994 16.1938C9.42741 16.2931 9.65353 16.3973 9.87964 16.5031C11.0208 17.0337 12.1815 17.5741 12.697 18.8844C12.8161 19.1855 12.9141 19.5338 12.9894 19.9391L13.0015 20.001H12.4121ZM5.42822 15.4142C5.24281 15.3621 5.06041 15.2953 4.88254 15.2156C4.83882 15.419 4.78003 15.6144 4.70617 15.8015C4.61422 16.0376 4.49814 16.2638 4.35946 16.477C4.51322 16.661 4.68808 16.8188 4.87651 16.9507C5.38602 17.3072 6.00104 17.4732 6.60552 17.4585C7.20698 17.4423 7.79487 17.2437 8.25313 16.8693C8.37523 16.77 8.48829 16.6577 8.58929 16.5324C8.61943 16.4933 8.64808 16.451 8.67521 16.4103C8.56818 16.2085 8.47774 15.9969 8.40387 15.7722C8.34659 15.6013 8.29986 15.4255 8.26218 15.2449C7.67428 15.4728 7.07885 15.5851 6.49548 15.5753C6.1337 15.5688 5.77644 15.5167 5.42822 15.4142ZM4.82073 14.4913C5.01218 14.6003 5.20663 14.6882 5.40561 14.7582L5.41315 14.7615C5.78096 14.8835 6.16535 14.9438 6.55125 14.9438C7.1708 14.9438 7.79789 14.7924 8.37975 14.5059C8.96463 14.2194 9.50429 13.7979 9.94596 13.2591C10.659 12.3899 11.1248 11.2131 11.1248 9.797V6.90948H11.1263C11.1202 6.71091 11.0931 6.52861 11.0434 6.36258C10.9951 6.20307 10.9258 6.06309 10.8323 5.94427C10.4781 5.49502 10.1419 5.51293 9.66257 5.5406C9.61885 5.54223 9.57665 5.54548 9.51484 5.54874C7.61851 5.63826 6.37639 5.63663 5.36943 5.54223C4.44237 5.4527 3.71278 5.28831 2.86259 5.04578C2.7827 5.24924 2.68924 5.44782 2.58071 5.64152C2.44202 5.88892 2.28073 6.12494 2.09682 6.34956L2.04105 9.56424C2.02296 10.6011 2.15712 11.3368 2.47971 11.9846C2.80833 12.6438 3.33743 13.2331 4.10019 13.9639C4.30218 14.1576 4.51774 14.3203 4.74235 14.4538C4.7725 14.462 4.79812 14.475 4.82073 14.4913ZM5.28653 12.5885C5.15237 12.4941 5.11468 12.302 5.20211 12.1572C5.28954 12.0123 5.46742 11.9716 5.60158 12.066C5.93019 12.2971 6.24675 12.4225 6.54673 12.4257C6.83766 12.4306 7.12558 12.3183 7.41048 12.0806C7.53711 11.9748 7.718 11.9993 7.81598 12.136C7.91396 12.2727 7.89135 12.468 7.76473 12.5738C7.3728 12.9026 6.96429 13.054 6.53919 13.0491C6.12465 13.0426 5.7071 12.8831 5.28653 12.5885ZM4.21023 8.68041C4.55543 8.68041 4.8343 8.98153 4.8343 9.35427C4.8343 9.72701 4.55543 10.0281 4.21023 10.0281C3.86503 10.0281 3.58615 9.72701 3.58615 9.35427C3.58615 8.98153 3.86503 8.68041 4.21023 8.68041ZM8.9164 8.68041C9.2616 8.68041 9.54047 8.98153 9.54047 9.35427C9.54047 9.72701 9.2616 10.0281 8.9164 10.0281C8.5712 10.0281 8.29232 9.72701 8.29232 9.35427C8.29232 8.98153 8.5712 8.68041 8.9164 8.68041Z" fill="#8CA3A5"/>
</svg>
