<svg width="106" height="122" viewBox="0 0 106 122" fill="none" xmlns="http://www.w3.org/2000/svg">
<path d="M12.1997 121.469C10.1731 121.466 8.18235 120.934 6.42332 119.928C2.46238 117.683 0 113.326 0 108.596V12.8736C0 8.13041 2.46238 3.78658 6.42332 1.54205C8.22424 0.507042 10.2701 -0.0252115 12.3471 0.00091774C14.4241 0.027047 16.4559 0.610601 18.2302 1.69058L100.04 50.661C101.745 51.7301 103.151 53.2147 104.125 54.9755C105.099 56.7364 105.61 58.7159 105.61 60.7284C105.61 62.7408 105.099 64.7203 104.125 66.4812C103.151 68.2421 101.745 69.7267 100.04 70.7957L18.217 119.779C16.4012 120.877 14.3215 121.461 12.1997 121.469Z" fill="white"/>
</svg>
